<?xml version="1.0" encoding="UTF-8"?>
<svg width="24px" height="24px" viewBox="0 0 24 24" version="1.1" xmlns="http://www.w3.org/2000/svg" xmlns:xlink="http://www.w3.org/1999/xlink">
    <title>1 Atoms/Icons/UI/3_Crown</title>
    <defs>
        <linearGradient x1="50%" y1="1.81244537%" x2="50%" y2="98.5571801%" id="linearGradient-1">
            <stop stop-color="#FFFFFF" offset="0%"></stop>
            <stop stop-color="#FFFFFF" stop-opacity="0" offset="100%"></stop>
        </linearGradient>
    </defs>
    <g id="1-Atoms/Icons/UI/3_Crown" stroke="none" stroke-width="1" fill="none" fill-rule="evenodd">
        <g id="Group-33">
            <rect id="Rectangle" x="0" y="0" width="24" height="24"></rect>
            <g id="Group-3" transform="translate(1.875000, 3.000000)">
                <path d="M3.08759083,13.8641144 L17.1624092,13.8641144 C17.9397399,13.8641144 18.569891,14.4813475 18.569891,15.242743 L18.569891,16.6213715 C18.569891,17.382767 17.9397399,18 17.1624092,18 L3.08759083,18 C2.31026008,18 1.680109,17.382767 1.680109,16.6213715 L1.680109,15.242743 C1.680109,14.4813475 2.31026008,13.8641144 3.08759083,13.8641144 Z" id="Rectangle" fill="#AD6656"></path>
                <path d="M18.6105686,12.4854859 L20.2367079,4.3650084 C20.3115178,3.99142927 20.0629792,3.6291814 19.6815814,3.55590515 C19.4515902,3.51171797 19.2142334,3.58258138 19.0485062,3.74491122 L10.125,12.4854859 L18.6105686,12.4854859 Z" id="Path-8" fill="#8A5144"></path>
                <path d="M1.63943138,12.4854859 L0.0132920647,4.3650084 C-0.0615177869,3.99142927 0.18702083,3.6291814 0.568418602,3.55590515 C0.798409795,3.51171797 1.03576655,3.58258138 1.2014938,3.74491122 L10.125,12.4854859 L1.63943138,12.4854859 Z" id="Path-8" fill="#8A5144"></path>
                <path d="M1.680109,12.4854859 L18.569891,12.4854859 L11.2216282,0.661964105 C10.8174289,0.0115982014 9.95150055,-0.194676424 9.28752314,0.201236834 C9.09016665,0.318915611 8.92542172,0.482374294 8.80783079,0.677183972 L1.680109,12.4854859 Z" id="Path-7" fill="#AD6656"></path>
                <path d="M5.19881358,12.4854859 L15.0511864,12.4854859 L10.7905106,5.43408963 C10.5529618,5.04094749 10.0350155,4.91086651 9.63364529,5.14354564 C9.50826868,5.21622796 9.40422143,5.31944496 9.33161629,5.44316456 L5.19881358,12.4854859 Z" id="Path-7" fill="url(#linearGradient-1)" opacity="0.400000006"></path>
            </g>
        </g>
    </g>
</svg>