<?xml version="1.0" encoding="UTF-8"?>
<svg width="24px" height="24px" viewBox="0 0 24 24" version="1.1" xmlns="http://www.w3.org/2000/svg" xmlns:xlink="http://www.w3.org/1999/xlink">
    <title>1 Atoms/Icons/UI/2_Crown</title>
    <defs>
        <linearGradient x1="50%" y1="1.81244537%" x2="50%" y2="98.5571801%" id="linearGradient-1">
            <stop stop-color="#FFFFFF" offset="0%"></stop>
            <stop stop-color="#FFFFFF" stop-opacity="0" offset="100%"></stop>
        </linearGradient>
    </defs>
    <g id="1-Atoms/Icons/UI/2_Crown" stroke="none" stroke-width="1" fill="none" fill-rule="evenodd">
        <g id="Group-34">
            <rect id="Rectangle" x="0" y="0" width="24" height="24"></rect>
            <g id="Group-2" transform="translate(0.750000, 3.375000)">
                <path d="M4.52606863,13.286443 L17.9739314,13.286443 C18.7166363,13.286443 19.3187176,13.877958 19.3187176,14.6076287 L19.3187176,15.9288143 C19.3187176,16.658485 18.7166363,17.25 17.9739314,17.25 L4.52606863,17.25 C3.78336368,17.25 3.18128236,16.658485 3.18128236,15.9288143 L3.18128236,14.6076287 C3.18128236,13.877958 3.78336368,13.286443 4.52606863,13.286443 Z" id="Rectangle" fill="#898C8D"></path>
                <path d="M19.3575833,11.9652574 L22.4659253,2.71476669 C22.5823376,2.36832118 22.390842,1.99475695 22.0382079,1.88038763 C21.797027,1.80216577 21.5315642,1.86413163 21.351971,2.04057304 L11.25,11.9652574 L19.3575833,11.9652574 Z" id="Path-8" fill="#6D7070"></path>
                <path d="M3.14241671,11.9652574 L0.0340746827,2.71476669 C-0.0823376422,2.36832118 0.109157969,1.99475695 0.461792102,1.88038763 C0.702973028,1.80216577 0.968435788,1.86413163 1.14802901,2.04057304 L11.25,11.9652574 L3.14241671,11.9652574 Z" id="Path-8" fill="#6D7070"></path>
                <path d="M3.18128236,11.9652574 L19.3187176,11.9652574 L12.2977795,0.634382267 C11.911585,0.011114943 11.084229,-0.186564906 10.4498281,0.192851966 C10.2612628,0.305627461 10.1038563,0.462275365 9.99150342,0.648967974 L3.18128236,11.9652574 Z" id="Path-7" fill="#898C8D"></path>
                <path d="M6.54324804,11.9652574 L15.956752,11.9652574 L11.8858658,5.20766923 C11.6588984,4.83090801 11.1640238,4.70624707 10.7805324,4.92923124 C10.6607407,4.99888513 10.5613281,5.09780142 10.4919572,5.21636603 L6.54324804,11.9652574 Z" id="Path-7" fill="url(#linearGradient-1)" opacity="0.400000006"></path>
            </g>
        </g>
    </g>
</svg>