<?xml version="1.0" encoding="UTF-8"?>
<svg width="24px" height="24px" viewBox="0 0 24 24" version="1.1" xmlns="http://www.w3.org/2000/svg" xmlns:xlink="http://www.w3.org/1999/xlink">
    <title>1 Atoms/Icons/UI/1_Crown</title>
    <defs>
        <linearGradient x1="50%" y1="1.81244537%" x2="50%" y2="98.5571801%" id="linearGradient-1">
            <stop stop-color="#FFFFFF" offset="0%"></stop>
            <stop stop-color="#FFFFFF" stop-opacity="0" offset="100%"></stop>
        </linearGradient>
    </defs>
    <g id="1-Atoms/Icons/UI/1_Crown" stroke="none" stroke-width="1" fill="none" fill-rule="evenodd">
        <g id="Group-30">
            <rect id="Rectangle" x="0" y="0" width="24" height="24"></rect>
            <g id="Group-Copy-2" transform="translate(0.750000, 1.500000)">
                <path d="M4.52606863,17.0625 L17.9739314,17.0625 C18.7166363,17.0625 19.3187176,17.6501263 19.3187176,18.375 L19.3187176,19.6875 C19.3187176,20.4123737 18.7166363,21 17.9739314,21 L4.52606863,21 C3.78336368,21 3.18128236,20.4123737 3.18128236,19.6875 L3.18128236,18.375 C3.18128236,17.6501263 3.78336368,17.0625 4.52606863,17.0625 Z" id="Rectangle" fill="#FCBD1A"></path>
                <path d="M19.3575833,15.75 L22.4659253,6.56032337 C22.5823376,6.21615545 22.390842,5.84504709 22.0382079,5.73142964 C21.797027,5.65372202 21.5315642,5.71528051 21.351971,5.89056197 L11.25,15.75 L19.3575833,15.75 Z" id="Path-8" fill="#E2A818"></path>
                <path d="M3.14241671,15.75 L0.0340746827,6.56032337 C-0.0823376422,6.21615545 0.109157969,5.84504709 0.461792102,5.73142964 C0.702973028,5.65372202 0.968435788,5.71528051 1.14802901,5.89056197 L11.25,15.75 L3.14241671,15.75 Z" id="Path-8" fill="#E2A818"></path>
                <path d="M3.18128236,15.75 L19.3187176,15.75 L12.3261185,3.41795561 C11.9664934,2.78372601 11.1481674,2.55411584 10.4983364,2.90510694 C10.2723941,3.02714438 10.087231,3.2100927 9.96497269,3.4320909 L3.18128236,15.75 Z" id="Path-7" fill="#FCBD1A"></path>
                <path d="M6.54324804,15.75 L15.956752,15.75 L11.8997816,8.5022674 C11.6861338,8.120588 11.1959145,7.9802133 10.8048462,8.18873172 C10.6662688,8.26262147 10.5529518,8.37457334 10.4789381,8.51071374 L6.54324804,15.75 Z" id="Path-7" fill="url(#linearGradient-1)" opacity="0.400000006"></path>
                <ellipse id="Oval" fill="#857550" cx="11.25" cy="1.96875" rx="2.01717941" ry="1.96875"></ellipse>
                <ellipse id="Oval" fill="#FCBD1A" cx="11.25" cy="1.96875" rx="2.01717941" ry="1.96875"></ellipse>
                <ellipse id="Oval" fill="#FFFFFF" cx="11.25" cy="1.96875" rx="1" ry="1"></ellipse>
            </g>
        </g>
    </g>
</svg>